<?xml version="1.0" standalone="no"?>
<!DOCTYPE svg PUBLIC "-//W3C//DTD SVG 1.1//EN" "http://www.w3.org/Graphics/SVG/1.1/DTD/svg11.dtd" >
<svg xmlns="http://www.w3.org/2000/svg">
<metadata>
Created by FontPrep 20130207 at Sun May 31 17:22:46 2015
 By nile master
Copyright (c) 2013 by Ne'stor Delgado. All rights reserved.
</metadata>
<defs>
<font id="8c6bab8cec0d4246438dcc39dd90796d" horiz-adv-x='1024' >
  <font-face 
    font-family="seagle"
    font-weight="400"
    font-stretch="normal"
    units-per-em="2048"
    panose-1="2 0 0 0 0 0 0 0 0 0"
    ascent="1536"
    descent="-512"
    x-height="1094"
    cap-height="1570"
    bbox="-235.522 -478 2048 2002.17"
    underline-thickness="102"
    underline-position="-102"
    unicode-range="U+0020-FB02"
  />
<missing-glyph horiz-adv-x="512" 
 />
    <glyph glyph-name=".notdef" horiz-adv-x="512" 
 />
    <glyph glyph-name=".null" horiz-adv-x="0" 
 />
    <glyph glyph-name="nonmarkingreturn" horiz-adv-x="681" 
 />
    <glyph glyph-name="space" unicode=" " horiz-adv-x="512" 
 />
    <glyph glyph-name="exclam" unicode="!" horiz-adv-x="389" 
d="M93 0q-35 0 -61 26t-26 62t26 60q26 26 61 26q36 0 62 -26q25 -26 25 -62t-26 -60q-26 -26 -61 -26zM184 1483v-4l-26 -1131q0 -27 -20 -46t-46 -18q-27 1 -45 19t-18 45l-27 1131q-2 37 25 65t65 28t64 -26q28 -26 28 -63z" />
    <glyph glyph-name="quotedbl" unicode="&#x22;" horiz-adv-x="593" 
d="M246 1501q0 29 21 49t51 21q30 -1 50 -21t21 -49v-323q0 -29 -20 -51q-21 -21 -51 -21t-52 22t-20 50v323zM72 1571q28 -1 50 -21t21 -49v-323q1 -29 -21 -51q-22 -21 -50 -21t-50 22t-22 50v323q0 29 22 49t50 21z" />
    <glyph glyph-name="numbersign" unicode="#" horiz-adv-x="1775" 
d="M627 627h319v319h-319v-319zM1501 627q29 0 49 -22q20 -23 20 -51t-20 -50t-49 -21h-414v-411q0 -28 -20 -50t-50 -22t-50 22t-21 50v411h-319v-411q0 -28 -22 -50q-23 -22 -51 -22t-50 22t-21 50v411h-411q-28 0 -50 22q-22 23 -22 51t22 50t50 21h411v319h-411
q-28 0 -50 20t-22 51q0 30 22 50t50 20h411v414q0 29 22 49q23 20 51 20t50 -20t21 -49v-414h319v414q0 29 20 49t51 20q30 0 50 -20t20 -49v-414h414q29 0 49 -20t20 -50t-20 -50t-49 -21h-414v-319h414z" />
    <glyph glyph-name="dollar" unicode="$" 
d="M477 1430h-334v-361l334 -168v529zM618 143h334v361l-334 166v-527zM1024 1118q-28 0 -50 22t-22 50v240h-334v-601l439 -217q39 -20 39 -65v-475q0 -28 -22 -50t-50 -22h-406v-174q0 -28 -20 -50t-50 -22t-50 22t-21 50v174h-405q-28 0 -50 22t-22 50v309q0 29 22 51
t50 21q28 0 50 -22t21 -50v-238h334v598l-438 220q-39 18 -39 63v477q0 29 22 49t50 21h405v176q1 29 21 49t50 20t50 -20t20 -49v-176h406q28 -1 50 -21t22 -49v-311q0 -28 -22 -50t-50 -22z" />
    <glyph glyph-name="uni0025" unicode="%" horiz-adv-x="1302" 
d="M831 143q51 0 88 36q36 36 35 87q0 51 -35 87t-87 36t-88 -36t-36 -87t36 -87t87 -36zM831 532q111 0 189 -78t78 -189q0 -109 -78 -187t-189 -78t-189 78t-77 188q-1 110 77 188t189 78zM268 1430q-51 0 -87 -36t-36 -87t36 -87t87 -36t87 36t36 87t-36 87t-87 36z
M267 1040q-109 0 -187 78t-78 188t78 188t188 77q110 0 188 -78q79 -77 79 -187t-79 -188t-189 -78zM80 0q-30 0 -50 13q-22 13 -27 43t11 55l953 1429q17 25 45 31t53 -10q25 -17 31 -47t-11 -54l-952 -1429q-23 -31 -53 -31z" />
    <glyph glyph-name="ampersand" unicode="&#x26;" horiz-adv-x="1634" 
d="M143 143h846l84 107l-565 553l-365 -289v-371zM809 1430h-524v-209l233 -228l291 232v205zM147 1163v4q-4 8 -4 15v319q1 29 21 49t51 21h666q29 -1 51 -21t20 -49v-311q0 -33 -26 -55l-305 -242l540 -528l139 180q18 23 48 25t54 -14q22 -17 26 -47t-15 -52l-149 -195
l143 -139q20 -20 21 -51q1 -32 -19 -52t-51 -20t-51 20l-131 130l-97 -123q-20 -27 -55 -27h-952q-28 0 -50 22t-22 50v475q0 35 27 57l379 299l-242 236v2h-2v2h-2v2q-6 6 -10 14v2q0 2 -3 2z" />
    <glyph glyph-name="quotesingle" unicode="'" horiz-adv-x="348" 
d="M72 1571q28 -1 50 -21t21 -49v-323q1 -29 -21 -51q-22 -21 -50 -21t-50 22t-22 50v323q0 29 22 49t50 21z" />
    <glyph glyph-name="parenleft" unicode="(" horiz-adv-x="563" 
d="M283 0q-33 0 -50 23l-215 237q-18 23 -18 49v953q0 29 18 47l215 237q19 23 49 25q30 1 52 -19t24 -49q0 -29 -20 -51l-195 -219v-897l195 -217q20 -23 19 -53t-21 -48t-53 -18z" />
    <glyph glyph-name="parenright" unicode=")" horiz-adv-x="563" 
d="M76 0q-34 0 -54 18t-21 48t19 53l195 217v897l-195 219q-20 24 -19 52t24 48t53 18t47 -24l215 -237q18 -18 18 -47v-953q0 -27 -18 -49l-215 -237q-16 -23 -49 -23z" />
    <glyph glyph-name="asterisk" unicode="*" horiz-adv-x="966" 
d="M453 428q0 -28 -22 -50q-23 -22 -51 -22t-50 22t-21 50v234l-203 -117q-14 -8 -46 -8q-32 1 -48 31t-9 58t32 44l203 116l-203 117q-25 14 -32 43q-7 28 7 54t43 34t53 -8l203 -117v234q0 29 22 51q23 22 51 20q28 0 50 -22t21 -49v-234l200 117q27 14 56 7t44 -33t7 -54
t-35 -43l-201 -117l201 -116q27 -16 34 -44t-9 -59t-48 -31t-47 9l-202 117v-234z" />
    <glyph glyph-name="plus" unicode="+" horiz-adv-x="1257" 
d="M981 618q29 0 51 -22t21 -50q0 -30 -22 -50t-50 -21h-383v-383q0 -31 -22 -51q-22 -21 -50 -21t-50 20t-21 52v383h-383q-28 1 -50 21t-22 50t22 52t50 20h383v383q0 29 21 51q22 22 50 22t51 -22q22 -22 21 -51v-383h383z" />
    <glyph glyph-name="comma" unicode="," horiz-adv-x="479" 
d="M47 -231q-27 11 -40 37t-3 55l131 358q10 29 38 40q29 11 55 2t39 -36t3 -55l-131 -358q-9 -29 -37 -41t-55 -2z" />
    <glyph glyph-name="hyphen" unicode="-" horiz-adv-x="825" 
d="M72 494q-28 0 -50 22t-22 50t22 50t50 21h477q29 0 51 -22q22 -23 21 -51q0 -28 -22 -50t-50 -20h-477z" />
    <glyph glyph-name="period" unicode="." horiz-adv-x="348" 
d="M72 0q-28 0 -50 20t-22 50v120q0 30 22 50t50 20t50 -20t21 -50v-120q0 -30 -21 -50t-50 -20z" />
    <glyph glyph-name="slash" unicode="/" horiz-adv-x="1302" 
d="M1018 1571q67 0 78 -57q6 -30 -11 -54l-952 -1427q-16 -25 -45 -31t-55 10q-25 16 -30 45t11 54l953 1429q20 31 51 31z" />
    <glyph glyph-name="zero" unicode="0" 
d="M190 1430q-20 0 -33 -14t-14 -36v-1190q-1 -20 13 -33t34 -14h715q19 -1 33 13t14 34v1190q0 20 -14 34t-33 16h-715zM905 0h-715q-78 0 -134 56t-56 134v1190q0 80 56 136t134 55h715q78 0 134 -55t57 -136v-1190q0 -78 -56 -134t-135 -56z" />
    <glyph glyph-name="one" unicode="1" horiz-adv-x="681" 
d="M477 72q0 -28 -21 -50t-51 -22t-51 22q-20 22 -20 50v1312l-232 -114q-26 -14 -54 -4t-41 37t-4 55t36 39l334 168q39 18 69 -4q35 -20 35 -60v-1429z" />
    <glyph glyph-name="two" unicode="2" 
d="M1024 0h-952q-28 0 -50 22t-22 50v475q0 47 39 65l913 457v361h-809v-240q1 -28 -21 -50t-50 -22t-50 22t-22 50v311q0 29 22 49t50 21h952q28 -1 50 -21t22 -49v-477q0 -43 -39 -63l-914 -457v-361h881q28 1 50 -21t22 -50t-22 -50t-50 -22z" />
    <glyph glyph-name="three" unicode="3" 
d="M1024 0h-952q-28 0 -50 22t-22 50v237q0 29 22 51t50 21q28 0 50 -22t21 -50v-166h809v361l-436 217q-39 20 -39 65t39 64l436 219v361h-809v-168q1 -29 -21 -51q-22 -21 -50 -21t-50 22t-22 50v239q0 29 22 49t50 21h952q28 -1 50 -21t22 -49v-477q0 -43 -39 -63
l-350 -175l350 -174q39 -20 39 -65v-475q0 -28 -22 -50t-50 -22z" />
    <glyph glyph-name="four" unicode="4" 
d="M1024 1548q28 0 50 -22t22 -49v-1405q0 -28 -22 -50t-50 -22t-50 22t-22 50v643h-880q-28 0 -50 20t-22 51v715q0 29 22 49t50 20t50 -20t21 -49v-643h809v619q0 29 22 50t50 21z" />
    <glyph glyph-name="five" unicode="5" 
d="M1024 0h-952q-28 0 -50 22t-22 50t22 50t50 21h880v361l-913 457q-39 18 -39 63v477q0 29 22 49t50 21h952q28 -1 50 -21t22 -49v-311q0 -28 -22 -50t-50 -22t-50 22t-22 50v240h-809v-361l914 -457q39 -20 39 -65v-475q0 -28 -22 -50t-50 -22z" />
    <glyph glyph-name="six" unicode="6" 
d="M952 143v361l-809 405v-766h809zM1096 547v-475q0 -28 -22 -50t-50 -22h-952q-28 0 -50 22t-22 50v1429q0 29 22 49t50 21h952q28 -1 50 -21t22 -50t-22 -50t-50 -20h-881v-361l914 -457q39 -20 39 -65z" />
    <glyph glyph-name="seven" unicode="7" 
d="M618 72q0 -28 -20 -50t-50 -22t-50 22t-21 50v714q0 45 39 64l436 219v361h-809v-240q1 -28 -21 -50t-50 -22t-50 22t-22 50v311q0 29 22 49t50 21h952q28 -1 50 -21t22 -49v-477q0 -43 -39 -63l-439 -220v-669z" />
    <glyph glyph-name="eight" unicode="8" 
d="M952 1430h-809v-361l404 -203l405 203v361zM143 143h809v361l-405 203l-404 -203v-361zM1096 1024q0 -43 -39 -63l-350 -175l350 -174q39 -20 39 -65v-475q0 -28 -22 -50t-50 -22h-952q-28 0 -50 22t-22 50v475q0 47 39 65l348 174l-348 175q-39 18 -39 63v477
q0 29 22 49t50 21h952q28 -1 50 -21t22 -49v-477z" />
    <glyph glyph-name="nine" unicode="9" 
d="M952 1430h-809v-361l809 -405v766zM1024 0h-952q-28 0 -50 22t-22 50t22 50t50 21h880v361l-913 457q-39 18 -39 63v477q0 29 22 49t50 21h952q28 -1 50 -21t22 -49v-1429q0 -28 -22 -50t-50 -22z" />
    <glyph glyph-name="colon" unicode=":" horiz-adv-x="348" 
d="M72 831q-28 0 -50 22t-22 50v121q0 29 22 49q22 21 50 21t50 -20t21 -50v-121q0 -29 -21 -51t-50 -21zM72 0q-28 0 -50 20t-22 50v120q0 30 22 50t50 20t50 -20t21 -50v-120q0 -30 -21 -50t-50 -20z" />
    <glyph glyph-name="semicolon" unicode=";" horiz-adv-x="503" 
d="M227 831q-29 0 -51 22t-20 50v121q0 29 21 49q23 21 51 21t50 -20t21 -50v-121q1 -29 -21 -51t-51 -21zM47 -231q-27 11 -40 37t-3 55l131 358q10 29 38 40q29 11 55 2t39 -36t3 -55l-131 -358q-9 -29 -37 -41t-55 -2z" />
    <glyph glyph-name="less" unicode="&#x3c;" horiz-adv-x="1062" 
d="M786 0q-31 0 -51 20l-715 715q-20 23 -20 51t20 50l715 714q23 23 51 23q28 1 50 -21q20 -22 20 -52t-20 -50l-664 -664l664 -663q20 -20 20 -51q0 -32 -20 -52t-50 -20z" />
    <glyph glyph-name="equal" unicode="=" horiz-adv-x="1257" 
d="M981 303q29 1 51 -21t21 -52q0 -30 -22 -50t-50 -20h-909q-28 0 -50 20t-22 50t22 52t50 21h909zM72 803q-28 0 -50 20t-22 50t22 52t50 21h909q29 0 51 -22t21 -51q0 -30 -22 -50t-50 -20h-909z" />
    <glyph glyph-name="greater" unicode="&#x3e;" horiz-adv-x="1062" 
d="M72 0q-31 0 -49 20q-23 20 -23 52t23 51l663 663l-663 664q-23 20 -23 50t23 50q20 23 50 23t50 -23l715 -714q20 -20 20 -50t-20 -51l-715 -715q-20 -20 -51 -20z" />
    <glyph glyph-name="question" unicode="?" 
d="M477 190q1 28 21 50t50 22t50 -22t20 -50v-118q0 -28 -20 -50t-50 -22t-50 22t-21 50v118zM1024 1571q28 -1 50 -21t22 -49v-596q0 -43 -39 -63l-439 -219v-195q0 -28 -20 -50t-50 -22t-50 22t-21 50v240q0 45 39 63l436 217v482h-809v-240q1 -28 -21 -50t-50 -22t-50 22
t-22 50v311q0 29 22 49t50 21h952z" />
    <glyph glyph-name="at" unicode="@" 
d="M1024 1571q28 -1 50 -21t22 -49v-1073q0 -31 -22 -51t-50 -21h-715q-29 0 -51 20t-20 52v356q0 43 41 64l475 237q26 13 54 5t41 -35t4 -55t-36 -42l-436 -219v-241h420q6 2 14 2h137v930h-809v-1287h881q28 1 50 -21t22 -50t-22 -50t-50 -22h-952q-28 0 -50 22t-22 50
v1429q0 29 22 49t50 21h952z" />
    <glyph glyph-name="A" unicode="A" 
d="M143 858h809v572h-809v-572zM1024 1571q28 -1 50 -21t22 -49v-1429q0 -28 -22 -50t-50 -22t-50 22t-22 50v643h-809v-643q1 -28 -21 -50t-50 -22t-50 22t-22 50v1429q0 29 22 49t50 21h952z" />
    <glyph glyph-name="B" unicode="B" 
d="M143 143h809v361l-436 217q-39 20 -39 65t39 64l436 219v361h-809v-1287zM1024 0h-952q-28 0 -50 22t-22 50v1429q0 29 22 49t50 21h952q28 -1 50 -21t22 -49v-477q0 -43 -39 -63l-350 -175l350 -174q39 -20 39 -65v-475q0 -28 -22 -50t-50 -22z" />
    <glyph glyph-name="C" unicode="C" 
d="M1024 0h-952q-28 0 -50 22t-22 50v1429q0 29 22 49t50 21h952q28 -1 50 -21t22 -50t-22 -50t-50 -20h-881v-1287h881q28 1 50 -21t22 -50t-22 -50t-50 -22z" />
    <glyph glyph-name="D" unicode="D" 
d="M143 143h387l422 211v865l-422 211h-387v-1287zM547 0h-475q-28 0 -50 22t-22 50v1429q0 29 22 49t50 21h475q18 0 33 -6l477 -240q39 -18 39 -63v-953q0 -43 -39 -63l-477 -238q-15 -8 -33 -8z" />
    <glyph glyph-name="E" unicode="E" 
d="M1024 715h-881v-572h881q28 1 50 -21t22 -50t-22 -50t-50 -22h-952q-28 0 -50 22t-22 50v1429q0 29 22 49t50 21h952q28 -1 50 -21t22 -50t-22 -50t-50 -20h-881v-572h881q28 0 50 -22t22 -51q0 -30 -22 -50t-50 -20z" />
    <glyph glyph-name="F" unicode="F" 
d="M1024 858q28 0 50 -22t22 -51q0 -30 -22 -50t-50 -20h-881v-643q1 -28 -21 -50t-50 -22t-50 22t-22 50v1429q0 29 22 49t50 21h952q28 -1 50 -21t22 -50t-22 -50t-50 -20h-881v-572h881z" />
    <glyph glyph-name="G" unicode="G" 
d="M1024 0h-952q-28 0 -50 22t-22 50v1429q0 29 22 49t50 21h952q28 -1 50 -21t22 -49v-239q0 -29 -22 -51q-22 -21 -50 -21t-50 22t-22 50v168h-809v-1287h809v572h-334q-28 0 -50 20t-22 50t22 52t50 21h406q28 0 50 -22t22 -50v-714q0 -28 -22 -50t-50 -22z" />
    <glyph glyph-name="H" unicode="H" 
d="M1024 1571q28 -1 50 -21t22 -49v-1429q0 -28 -22 -50t-50 -22t-50 22t-22 50v643h-809v-643q1 -28 -21 -50t-50 -22t-50 22t-22 50v1429q0 29 22 49t50 20t50 -20t21 -49v-643h809v643q0 29 22 49t50 21z" />
    <glyph glyph-name="I" unicode="I" horiz-adv-x="348" 
d="M72 0q-28 0 -50 22t-22 50v1429q0 29 22 49t50 20t50 -20t21 -49v-1429q0 -28 -21 -50t-50 -22z" />
    <glyph glyph-name="J" unicode="J" horiz-adv-x="1062" 
d="M786 0h-714q-28 0 -50 22t-22 50t22 50t50 21h643v1287h-168q-29 0 -51 20t-21 50q0 30 22 50t50 21h239q29 -1 51 -21t21 -49v-1429q0 -28 -22 -50t-50 -22z" />
    <glyph glyph-name="K" unicode="K" 
d="M1096 1096q0 -43 -39 -64l-492 -246l492 -245q39 -20 39 -64v-405q0 -28 -22 -50t-50 -22t-50 22t-22 50v360l-565 283h-244v-643q1 -28 -21 -50t-50 -22t-50 22t-22 50v1429q0 29 22 49t50 20t50 -20t21 -49v-643h244l565 281v362q0 29 22 49t50 20t50 -20t22 -49v-405z
" />
    <glyph glyph-name="L" unicode="L" 
d="M1024 0h-952q-28 0 -50 22t-22 50v1429q0 29 22 49t50 20t50 -20t21 -49v-1358h881q28 1 50 -21t22 -50t-22 -50t-50 -22z" />
    <glyph glyph-name="M" unicode="M" horiz-adv-x="1775" 
d="M1571 1501v-1429q-1 -28 -21 -50t-50 -22t-50 22t-20 50v1251l-592 -610q-23 -23 -54 -23t-49 23l-592 610v-1251q1 -28 -21 -50t-50 -22t-50 22t-22 50v1429q0 49 45 65t78 -16l663 -686l662 686q33 33 78 17t45 -66z" />
    <glyph glyph-name="N" unicode="N" 
d="M1096 72q0 -72 -82 -72q-24 0 -49 31l-822 1233v-1192q1 -28 -21 -50t-50 -22t-50 22t-22 50v1429q0 51 51 68q49 14 80 -29l821 -1233v1194q0 29 22 49t50 21q28 -1 50 -21t22 -49v-1429z" />
    <glyph glyph-name="O" unicode="O" 
d="M143 143h809v1287h-809v-1287zM1024 0h-952q-28 0 -50 22t-22 50v1429q0 29 22 49t50 21h952q28 -1 50 -21t22 -49v-1429q0 -27 -21 -52q-24 -20 -51 -20z" />
    <glyph glyph-name="P" unicode="P" 
d="M72 0q-28 0 -50 22t-22 50v1429q0 29 22 49t50 21h952q28 -1 50 -21t22 -49v-596q0 -43 -39 -63l-477 -240q-27 -12 -55 -3t-41 36t-4 55t36 41l436 217v482h-809v-1358q0 -28 -21 -50t-50 -22z" />
    <glyph glyph-name="Q" unicode="Q" 
d="M143 143h809v123l-436 217q-27 14 -36 42t3 55q14 28 42 36t55 -4l372 -186v1004h-809v-1287zM1096 1501v-1429q0 -27 -21 -52q-25 -20 -51 -20h-952q-28 0 -50 22t-22 50v1429q0 29 22 49t50 21h952q28 -1 50 -21t22 -49z" />
    <glyph glyph-name="R" unicode="R" 
d="M1024 0q-28 0 -50 22t-22 50v432l-436 217q-39 20 -39 65t39 64l436 219v361h-809v-1358q1 -28 -21 -50t-50 -22t-50 22t-22 50v1429q0 29 22 49t50 21h952q28 -1 50 -21t22 -49v-477q0 -43 -39 -63l-350 -175l350 -174q39 -20 39 -65v-475q0 -28 -22 -50t-50 -22z" />
    <glyph glyph-name="S" unicode="S" 
d="M1024 0h-952q-28 0 -50 22t-22 50v309q0 29 22 51t50 21q28 0 50 -22t21 -50v-238h809v361l-913 457q-39 18 -39 63v477q0 29 22 49t50 21h952q28 -1 50 -21t22 -49v-311q0 -28 -22 -50t-50 -22t-50 22t-22 50v240h-809v-361l914 -457q39 -20 39 -65v-475q0 -28 -22 -50
t-50 -22z" />
    <glyph glyph-name="T" unicode="T" 
d="M1024 1571q28 -1 50 -21t22 -50t-22 -50t-50 -20h-406v-1358q0 -28 -20 -50t-50 -22t-50 22t-21 50v1358h-405q-28 0 -50 20t-22 50t22 50t50 21h952z" />
    <glyph glyph-name="U" unicode="U" 
d="M1024 0h-952q-28 0 -50 22t-22 50v1429q0 29 22 49t50 20t50 -20t21 -49v-1358h809v1358q0 29 22 49t50 20t50 -20t22 -49v-1429q0 -27 -21 -52q-24 -20 -51 -20z" />
    <glyph glyph-name="V" unicode="V" 
d="M548 0q-17 0 -32 8l-477 236q-39 18 -39 65v1192q0 29 22 49t50 20t50 -20t21 -49v-1149l404 -200l405 200v1149q0 29 22 49t50 20t50 -20t22 -49v-1192q0 -45 -41 -65l-475 -236q-15 -8 -32 -8z" />
    <glyph glyph-name="W" unicode="W" horiz-adv-x="2252" 
d="M2048 1501v-1192q0 -45 -39 -65l-477 -236q-14 -8 -32 -8t-32 8l-444 221l-444 -221q-14 -8 -32 -8t-32 8l-477 236q-39 18 -39 65v1192q0 29 22 49t50 20t50 -20t21 -49v-1149l404 -200l405 200v1149q0 29 22 49t50 20t50 -20t22 -49v-1149l405 -200l404 200v1149
q0 29 21 49q22 20 50 20t50 -20t22 -49z" />
    <glyph glyph-name="X" unicode="X" 
d="M78 0q-32 0 -52 13t-25 43t11 55l449 673l-449 676q-16 26 -11 54t30 45q27 16 55 10t45 -31l416 -625l418 625q16 25 45 31q30 6 54 -10q24 -15 30 -45t-11 -54l-450 -676l450 -673q16 -25 11 -55q-11 -56 -76 -56q-31 0 -53 31l-418 624l-416 -624q-20 -31 -53 -31z
" />
    <glyph glyph-name="Y" unicode="Y" 
d="M1024 1571q28 -1 50 -21t22 -49v-477q0 -43 -39 -63l-439 -220v-669q0 -28 -20 -50t-50 -22t-50 22t-21 50v669l-438 220q-39 18 -39 63v477q0 29 22 49t50 20t50 -20t21 -49v-432l404 -203l405 203v432q0 29 22 49t50 21z" />
    <glyph glyph-name="Z" unicode="Z" 
d="M1024 0h-952q-28 0 -50 22t-22 50v475q0 47 39 65l913 457v361h-880q-28 0 -50 20t-22 50t22 50t50 21h952q28 -1 50 -21t22 -49v-477q0 -43 -39 -63l-914 -457v-361h881q28 1 50 -21t22 -50t-22 -50t-50 -22z" />
    <glyph glyph-name="bracketleft" unicode="[" horiz-adv-x="716" 
d="M440 0h-368q-28 0 -50 22t-22 50v1429q0 29 22 49t50 21h368q28 -1 50 -21t22 -50t-22 -50t-50 -20h-297v-1287h297q28 1 50 -21t22 -50t-22 -50t-50 -22z" />
    <glyph glyph-name="backslash" unicode="\" horiz-adv-x="1302" 
d="M79 1571q32 0 52 -31l952 -1429q15 -25 11 -54t-30 -45t-54 -10t-45 31l-953 1427q-16 25 -10 54q11 57 77 57z" />
    <glyph glyph-name="bracketright" unicode="]" horiz-adv-x="716" 
d="M72 0q-28 0 -50 22t-22 50t22 50t50 21h297v1287h-297q-28 0 -50 20t-22 50t22 50t50 21h368q28 -1 50 -21t22 -49v-1429q0 -28 -22 -50t-50 -22h-368z" />
    <glyph glyph-name="underscore" unicode="_" horiz-adv-x="980" 
d="M72 0q-28 0 -50 22t-22 50t22 50t50 21h633q29 1 51 -21t20 -50q0 -28 -22 -50t-49 -22h-633z" />
    <glyph glyph-name="grave" unicode="`" horiz-adv-x="532" 
d="M229 1196q-14 6 -26 18l-183 193q-20 20 -19 51t22 51q23 19 51 19t49 -21l182 -194q23 -20 22 -50q-1 -31 -29 -57t-69 -10z" />
    <glyph glyph-name="a" unicode="a" horiz-adv-x="1062" 
d="M786 1096q29 0 51 -22t21 -50v-952q0 -28 -22 -50t-50 -22h-714q-27 0 -52 20q-20 25 -20 52v356q0 47 39 64l477 239q26 12 54 3t41 -36q13 -26 4 -54t-35 -42l-437 -217v-242h572v809h-643q-28 0 -50 22t-22 50t22 50t50 22h714z" />
    <glyph glyph-name="b" unicode="b" horiz-adv-x="1062" 
d="M786 0h-714q-28 0 -50 20t-22 50v1491q0 29 22 51t50 20q28 0 50 -22t21 -49v-1420h572v811h-406q-29 0 -51 20t-20 51q0 30 21 50q22 20 50 21h477q29 0 51 -20t21 -50v-954q0 -29 -21 -50q-22 -20 -51 -20z" />
    <glyph glyph-name="c" unicode="c" horiz-adv-x="1062" 
d="M786 0h-714q-28 0 -50 22t-22 50v952q0 28 22 50t50 22h714q29 0 51 -22q21 -22 21 -50t-22 -50t-50 -22h-643v-809h643q29 1 51 -21q21 -22 21 -50t-22 -50t-50 -22z" />
    <glyph glyph-name="d" unicode="d" horiz-adv-x="1062" 
d="M72 0q-28 0 -50 20t-22 50v954q0 29 22 49t50 21h477q29 0 51 -20t21 -51q0 -30 -22 -50t-50 -21h-406v-811h572v1420q-1 29 21 51t50 20q28 0 51 -22q22 -22 21 -49v-1491q0 -29 -21 -50q-22 -20 -51 -20h-714z" />
    <glyph glyph-name="e" unicode="e" horiz-adv-x="1062" 
d="M715 952h-572v-809h643q29 1 51 -21q21 -22 21 -50t-22 -50t-50 -22h-714q-28 0 -50 22t-22 50v952q0 28 22 50t50 22h714q29 0 51 -22t21 -50v-356q0 -45 -41 -66l-475 -237q-30 -13 -56 -5t-40 36t-4 56t37 40l436 219v241z" />
    <glyph glyph-name="f" unicode="f" horiz-adv-x="819" 
d="M668 1632q29 0 49 -22t20 -50t-20 -50t-49 -21h-525v-395h404q31 0 51 -20t20 -51q0 -30 -20 -50t-51 -21h-404v-882q0 -29 -21 -50q-22 -20 -50 -20t-50 20t-22 50v1491q0 29 22 51t50 20h596z" />
    <glyph glyph-name="g" unicode="g" horiz-adv-x="1062" 
d="M786 -477h-714q-28 -1 -50 21t-22 52t22 50t50 20h643v1286h-572v-598l437 -219q28 -14 36 -42q8 -29 -5 -55t-41 -35t-54 5l-477 238q-39 20 -39 63v715q0 28 22 50t50 22h714q29 0 51 -22t21 -50v-1430q0 -29 -22 -50t-50 -21z" />
    <glyph glyph-name="h" unicode="h" horiz-adv-x="1062" 
d="M786 1096q29 0 51 -22t21 -50v-952q0 -28 -22 -50t-51 -22q-30 0 -50 22t-20 50v880h-572v-880q1 -28 -21 -50t-50 -22t-50 22t-22 50v1491q0 29 22 49t50 20t50 -20t21 -49v-467h643z" />
    <glyph glyph-name="i" unicode="i" horiz-adv-x="348" 
d="M72 1452q28 0 50 -20t21 -52v-118q1 -29 -21 -51q-22 -21 -50 -21t-50 22t-22 50v118q0 32 22 52t50 20zM72 1096q28 0 50 -22t21 -50v-952q1 -28 -21 -50t-50 -22t-50 22t-22 50v952q0 28 22 50t50 22z" />
    <glyph glyph-name="j" unicode="j" horiz-adv-x="350" 
d="M74 1452q28 0 50 -20t21 -52v-118q1 -29 -21 -51q-22 -21 -50 -21t-50 22t-22 50v118q0 32 22 52t50 20zM74 1096q28 0 50 -22t21 -50v-1311q0 -45 -39 -63l-239 -119q-20 -8 -31 -8q-45 0 -63 41q-14 26 -5 54t35 40l199 100v1266q0 28 22 50t50 22z" />
    <glyph glyph-name="k" unicode="k" horiz-adv-x="1062" 
d="M858 428v-356q0 -28 -22 -50t-51 -22q-30 0 -50 22t-20 50v313l-525 262l-47 -24v-551q1 -28 -21 -50t-50 -22t-50 22t-22 50v1429q0 29 22 49t50 20t50 -20t21 -49v-719l611 305q26 13 54 5t41 -35t4 -56t-36 -40l-467 -234l467 -235q41 -16 41 -64z" />
    <glyph glyph-name="l" unicode="l" horiz-adv-x="348" 
d="M72 0q-28 0 -50 22t-22 50v1491q0 29 22 49t50 20t50 -20t21 -49v-1491q0 -28 -21 -50t-50 -22z" />
    <glyph glyph-name="m" unicode="m" horiz-adv-x="1538" 
d="M1262 1096q28 0 50 -22t21 -50v-952q1 -28 -21 -50t-50 -22t-51 22q-22 22 -21 50v880h-453v-880q0 -28 -20 -50t-50 -22t-51 22q-20 22 -20 50v880h-453v-880q1 -28 -21 -50t-50 -22t-50 22t-22 50v952q0 28 22 50t50 22h1190z" />
    <glyph glyph-name="n" unicode="n" horiz-adv-x="1062" 
d="M786 1096q29 0 51 -22t21 -50v-952q0 -28 -22 -50t-51 -22q-30 0 -50 22t-20 50v880h-572v-880q1 -28 -21 -50t-50 -22t-50 22t-22 50v952q0 28 22 50t50 22h714z" />
    <glyph glyph-name="o" unicode="o" horiz-adv-x="1062" 
d="M715 143v809h-572v-809h572zM858 72q0 -28 -22 -50t-50 -22h-714q-28 0 -50 22t-22 50v952q0 28 22 50t50 22h714q29 0 51 -22t21 -50v-952z" />
    <glyph glyph-name="p" unicode="p" horiz-adv-x="1062" 
d="M786 1094q29 0 51 -20t21 -50v-954q0 -29 -21 -50q-22 -20 -51 -20h-477q-29 0 -51 20t-20 50q0 30 21 51q22 20 50 20h406v811h-572v-1358q1 -28 -21 -50t-50 -22t-50 22t-22 50v1430q0 29 22 49t50 21h714z" />
    <glyph glyph-name="q" unicode="q" horiz-adv-x="1062" 
d="M72 1094h714q29 0 51 -20t21 -50v-1430q0 -28 -22 -50t-50 -22t-50 22t-21 50v1358h-572v-811h406q29 0 51 -20t21 -50q0 -31 -22 -51t-50 -20h-477q-28 0 -50 20t-22 50v954q0 30 22 50t50 20z" />
    <glyph glyph-name="r" unicode="r" horiz-adv-x="663" 
d="M72 0q-28 0 -50 20t-22 50v954q0 29 22 49t50 21h356q31 0 51 -20q21 -20 21 -51q0 -30 -20 -50t-52 -21h-285v-882q0 -30 -21 -50t-50 -20z" />
    <glyph glyph-name="s" unicode="s" horiz-adv-x="1062" 
d="M786 0h-714q-28 0 -50 20t-22 50v239q0 29 22 51t50 21q28 0 50 -22t21 -50v-168h572v183l-676 338q-39 18 -39 63v299q0 29 22 49t50 21h714q29 0 51 -20t21 -50v-240q0 -28 -22 -50t-51 -22q-30 0 -50 22t-20 50v168h-572v-182l674 -338q41 -20 41 -63v-299
q0 -29 -21 -50q-22 -20 -51 -20z" />
    <glyph glyph-name="t" unicode="t" horiz-adv-x="704" 
d="M428 143q31 1 51 -21q21 -22 21 -50t-20 -50t-52 -22h-356q-28 0 -50 22t-22 50v1308q0 32 22 52t50 20t50 -20t21 -52v-284h285q31 0 51 -22q21 -22 21 -50t-20 -50t-52 -22h-285v-809h285z" />
    <glyph glyph-name="u" unicode="u" horiz-adv-x="1062" 
d="M715 1024q0 28 20 50t50 22t52 -22t21 -50v-952q0 -28 -22 -50t-50 -22h-714q-28 0 -50 22t-22 50v952q0 28 22 50t50 22t50 -22t21 -50v-881h572v881z" />
    <glyph glyph-name="v" unicode="v" horiz-adv-x="1062" 
d="M429 0q-17 0 -32 8l-358 176q-39 20 -39 66v774q0 28 22 50t50 22t50 -22t21 -50v-731l285 -141l287 141v731q0 28 20 50t50 22t52 -22t21 -50v-774q0 -45 -41 -66l-356 -176q-15 -8 -32 -8z" />
    <glyph glyph-name="w" unicode="w" horiz-adv-x="1775" 
d="M1571 1024v-774q0 -45 -39 -66l-356 -176q-14 -8 -34 -8t-30 8l-326 162l-325 -162q-13 -8 -31 -8t-33 8l-358 176q-39 20 -39 66v774q0 28 22 50t50 22t50 -22t21 -50v-731l285 -141l287 141v731q0 28 20 50t50 22t52 -22t21 -50v-731l285 -141l287 141v731q0 28 20 50
t50 22t50 -22t21 -50z" />
    <glyph glyph-name="x" unicode="x" horiz-adv-x="1064" 
d="M781 0q-30 0 -50 27l-301 401l-299 -401q-20 -27 -51 -27q-30 0 -52 15t-26 45t14 53l326 434l-326 434q-18 23 -14 53t28 46q24 18 54 14t47 -29l299 -399l301 399q16 25 46 29q29 4 53 -14t28 -47q4 -30 -12 -52l-326 -434l326 -434q16 -23 12 -53t-26 -45t-51 -15z
" />
    <glyph glyph-name="y" unicode="y" horiz-adv-x="1062" 
d="M715 1024q0 28 20 50t50 22t52 -22t21 -50v-774q0 -43 -41 -64l-317 -159v-433q0 -28 -20 -50t-51 -22q-29 0 -51 22t-22 50v433l-317 159q-39 18 -39 64v774q0 28 22 50t50 22t50 -22t21 -50v-729l285 -143l287 143v729z" />
    <glyph glyph-name="z" unicode="z" horiz-adv-x="1062" 
d="M786 0h-714q-28 0 -50 22t-22 50v297q0 45 39 63l676 338v182h-643q-28 0 -50 22t-22 50t22 50t50 22h714q29 0 51 -22t21 -50v-297q0 -45 -41 -65l-674 -336v-183h643q29 1 51 -21q21 -22 21 -50t-22 -50t-50 -22z" />
    <glyph glyph-name="braceleft" unicode="{" horiz-adv-x="872" 
d="M596 0h-334q-28 0 -50 22t-22 50v575l-151 74q-39 20 -39 65t39 64l151 76v575q0 29 22 49t50 21h334q28 -1 50 -21t22 -50t-22 -50t-50 -20h-262v-549q0 -43 -41 -64l-62 -31l62 -32q41 -20 41 -64v-547h262q28 1 50 -21t22 -50t-22 -50t-50 -22z" />
    <glyph glyph-name="bar" unicode="|" horiz-adv-x="348" 
d="M72 -102q-28 0 -50 22t-22 49v1635q0 29 22 49t50 20t50 -20t21 -49v-1635q0 -29 -21 -50t-50 -21z" />
    <glyph glyph-name="braceright" unicode="}" horiz-adv-x="872" 
d="M72 0q-28 0 -50 22t-22 50t22 50t50 21h262v547q0 43 41 64l61 32l-61 31q-41 20 -41 64v549h-262q-28 0 -50 20t-22 50t22 50t50 21h334q28 -1 50 -21t21 -49v-575l152 -76q39 -18 39 -64t-39 -65l-152 -74v-575q1 -28 -21 -50t-50 -22h-334z" />
    <glyph glyph-name="exclamdown" unicode="&#xa1;" horiz-adv-x="389" 
d="M93 1399q-35 -1 -61 25t-26 62t26 62t62 25q36 0 61 -26q25 -25 25 -61t-25 -62q-26 -25 -62 -25zM184 90q0 -38 -28 -64t-65 -25q-39 1 -65 29t-24 64l27 1131q0 27 18 45t45 19t46 -18t20 -46l26 -1131v-4z" />
    <glyph glyph-name="dieresis" unicode="&#xa8;" horiz-adv-x="671" 
d="M72 1190q-28 0 -50 22t-22 50v118q0 29 22 51q22 21 50 21t50 -22t21 -50v-118q0 -28 -21 -50t-50 -22zM467 1262q-1 -28 -21 -50t-50 -22t-52 22t-20 50v118q0 29 21 51q21 21 51 21t50 -22t21 -50v-118z" />
    <glyph glyph-name="copyright" unicode="&#xa9;" horiz-adv-x="1775" 
d="M786 143q266 1 454 189t190 454q0 266 -188 454t-456 190q-266 0 -454 -188t-188 -456q0 -266 188 -454t454 -189zM1341 229q-229 -229 -554 -229t-558 229q-229 233 -229 559t231 554q231 227 556 228q326 1 554 -229q228 -226 229 -552q2 -325 -229 -560zM1024 1071
h-406v-571h406q28 0 50 -20t22 -51q0 -29 -22 -51t-50 -22h-477q-29 0 -49 22t-21 50v715q1 29 21 51t49 20h477q28 0 50 -22t22 -50t-22 -50t-50 -21z" />
    <glyph glyph-name="uni00AD" unicode="&#xad;" horiz-adv-x="825" 
d="M72 494q-28 0 -50 22t-22 50t22 50t50 21h477q29 0 51 -22q22 -23 21 -51q0 -28 -22 -50t-50 -20h-477z" />
    <glyph glyph-name="registered" unicode="&#xae;" horiz-adv-x="1419" 
d="M606 500q193 0 329 136t136 329t-136 329t-329 136q-194 0 -328 -136t-134 -330q0 -192 134 -328q135 -136 328 -136zM1214 965q0 -252 -178 -430q-178 -179 -429 -179t-429 178t-178 431q0 252 177 429t430 177t430 -177t177 -429zM786 1305q29 0 51 -22t21 -50v-180
q0 -43 -41 -64l-51 -24l51 -27q41 -16 41 -64v-178q0 -28 -22 -50t-51 -22q-30 0 -50 22t-20 50v135l-140 70q-39 19 -39 63t39 64l140 70v63h-215v-465q0 -28 -20 -50t-51 -22q-29 0 -51 22t-22 50v537q0 29 22 51t50 21h358z" />
    <glyph glyph-name="acute" unicode="&#xb4;" horiz-adv-x="532" 
d="M125 1214q-53 -49 -100 -2q-23 20 -24 50t22 51l182 194q20 19 49 21t50 -18q20 -20 22 -52q2 -31 -19 -51z" />
    <glyph glyph-name="questiondown" unicode="&#xbf;" 
d="M548 1309q-30 -1 -50 21t-21 50v119q1 29 21 51t50 21q30 0 50 -22t20 -50v-119q0 -29 -20 -50t-50 -21zM72 0q-28 0 -50 20t-22 50v596q0 43 39 63l438 219v195q1 29 21 51t50 20q30 0 50 -22t20 -49v-240q0 -43 -38 -63l-437 -217v-482h809v240q0 29 22 51t50 21
q28 0 50 -22t22 -50v-311q0 -30 -22 -50t-50 -20h-952z" />
    <glyph glyph-name="Agrave" unicode="&#xc0;" 
d="M498 1688l-183 192q-20 20 -19 51t21 51q23 20 52 20t49 -22l182 -194q23 -20 22 -50t-25 -52q-23 -22 -51 -18q-28 2 -48 22zM952 858v572h-809v-572h809zM72 1571h952q28 -1 50 -21t22 -49v-1429q0 -28 -22 -50t-50 -22t-50 22t-22 50v643h-809v-643q1 -28 -21 -50
t-50 -22t-50 22t-22 50v1429q0 29 22 49t50 21z" />
    <glyph glyph-name="Aacute" unicode="&#xc1;" 
d="M598 1688q-20 -20 -48 -22t-52 18q-24 22 -24 52q-1 30 22 50l182 194q20 20 49 22t50 -20q21 -20 23 -51t-20 -51zM143 858h809v572h-809v-572zM1024 1571q28 -1 50 -21t22 -49v-1429q0 -28 -22 -50t-50 -22t-50 22t-22 50v643h-809v-643q1 -28 -21 -50t-50 -22t-50 22
t-22 50v1429q0 29 22 49t50 21h952z" />
    <glyph glyph-name="Adieresis" unicode="&#xc4;" 
d="M381 1665q-29 0 -51 22t-21 50v118q0 29 22 51q23 22 51 22t50 -22t21 -51v-118q1 -29 -21 -51t-51 -21zM776 1737q0 -29 -20 -51t-50 -21q-30 0 -52 22t-21 50v118q0 29 21 51q22 22 52 22t50 -22t20 -51v-118zM143 858h809v572h-809v-572zM1024 1571q28 -1 50 -21
t22 -49v-1429q0 -28 -22 -50t-50 -22t-50 22t-22 50v643h-809v-643q1 -28 -21 -50t-50 -22t-50 22t-22 50v1429q0 29 22 49t50 21h952z" />
    <glyph glyph-name="Egrave" unicode="&#xc8;" 
d="M498 1688l-183 192q-20 20 -19 51t21 51q23 20 52 20t49 -22l182 -194q23 -20 22 -50t-25 -52q-23 -22 -51 -18q-28 2 -48 22zM1024 715h-881v-572h881q28 1 50 -21t22 -50t-22 -50t-50 -22h-952q-28 0 -50 22t-22 50v1429q0 29 22 49t50 21h952q28 -1 50 -21t22 -50
t-22 -50t-50 -20h-881v-572h881q28 0 50 -22t22 -51q0 -30 -22 -50t-50 -20z" />
    <glyph glyph-name="Eacute" unicode="&#xc9;" 
d="M598 1688q-20 -20 -48 -22t-52 18q-24 22 -24 52q-1 30 22 50l182 194q20 20 49 22t50 -20q21 -20 23 -51t-20 -51zM1024 715h-881v-572h881q28 1 50 -21t22 -50t-22 -50t-50 -22h-952q-28 0 -50 22t-22 50v1429q0 29 22 49t50 21h952q28 -1 50 -21t22 -50t-22 -50
t-50 -20h-881v-572h881q28 0 50 -22t22 -51q0 -30 -22 -50t-50 -20z" />
    <glyph glyph-name="Edieresis" unicode="&#xcb;" 
d="M381 1665q-29 0 -51 22t-21 50v118q0 29 22 51q23 22 51 22t50 -22t21 -51v-118q1 -29 -21 -51t-51 -21zM776 1737q0 -29 -20 -51t-50 -21q-30 0 -52 22t-21 50v118q0 29 21 51q22 22 52 22t50 -22t20 -51v-118zM1024 715h-881v-572h881q28 1 50 -21t22 -50t-22 -50
t-50 -22h-952q-28 0 -50 22t-22 50v1429q0 29 22 49t50 21h952q28 -1 50 -21t22 -50t-22 -50t-50 -20h-881v-572h881q28 0 50 -22t22 -51q0 -30 -22 -50t-50 -20z" />
    <glyph glyph-name="Igrave" unicode="&#xcc;" horiz-adv-x="532" 
d="M254 0q-28 0 -50 22t-22 50v1429q0 29 22 49t50 20t50 -20t22 -49v-1429q0 -28 -22 -50t-50 -22zM203 1688l-183 192q-20 20 -19 51t22 51q23 20 51 20t49 -22l182 -194q23 -20 22 -50t-25 -52t-52 -18q-28 2 -47 22z" />
    <glyph glyph-name="Iacute" unicode="&#xcd;" horiz-adv-x="536" 
d="M72 0q-28 0 -50 22t-22 50v1429q0 29 22 49t50 20t50 -20t21 -49v-1429q0 -28 -21 -50t-50 -22zM129 1688q-20 -20 -48 -22q-27 -2 -51 18q-24 22 -25 52t22 50l182 194q20 20 49 22t50 -20q20 -20 22 -51t-19 -51z" />
    <glyph glyph-name="Idieresis" unicode="&#xcf;" horiz-adv-x="671" 
d="M229 0q-29 0 -51 22t-20 50v1429q0 29 21 49q23 20 51 20t50 -20t21 -49v-1429q1 -28 -21 -50t-51 -22zM72 1665q-28 0 -50 22t-22 50v118q0 29 22 51t50 22t50 -22t21 -51v-118q0 -29 -21 -51t-50 -21zM467 1737q-1 -29 -21 -51t-50 -21q-30 0 -52 22t-20 50v118
q0 29 21 51t51 22t50 -22t21 -51v-118z" />
    <glyph glyph-name="Ntilde" unicode="&#xd1;" 
d="M309 1667q-29 0 -51 22q-22 23 -20 51q0 28 22 50t49 20h477q29 0 51 -22q21 -22 21 -50t-22 -50t-50 -21h-477zM1096 72q0 -72 -82 -72q-24 0 -49 31l-822 1233v-1192q1 -28 -21 -50t-50 -22t-50 22t-22 50v1429q0 51 51 68q49 14 80 -29l821 -1233v1194q0 29 22 49
t50 21q28 -1 50 -21t22 -49v-1429z" />
    <glyph glyph-name="Ograve" unicode="&#xd2;" 
d="M498 1688l-183 192q-20 20 -19 51t21 51q23 20 52 20t49 -22l182 -194q23 -20 22 -50t-25 -52q-23 -22 -51 -18q-28 2 -48 22zM143 143h809v1287h-809v-1287zM1024 0h-952q-28 0 -50 22t-22 50v1429q0 29 22 49t50 21h952q28 -1 50 -21t22 -49v-1429q0 -27 -21 -52
q-24 -20 -51 -20z" />
    <glyph glyph-name="Oacute" unicode="&#xd3;" 
d="M598 1688q-20 -20 -48 -22t-52 18q-24 22 -24 52q-1 30 22 50l182 194q20 20 49 22t50 -20q21 -20 23 -51t-20 -51zM143 143h809v1287h-809v-1287zM1024 0h-952q-28 0 -50 22t-22 50v1429q0 29 22 49t50 21h952q28 -1 50 -21t22 -49v-1429q0 -27 -21 -52q-24 -20 -51 -20
z" />
    <glyph glyph-name="Odieresis" unicode="&#xd6;" 
d="M381 1665q-29 0 -51 22t-21 50v118q0 29 22 51q23 22 51 22t50 -22t21 -51v-118q1 -29 -21 -51t-51 -21zM776 1737q0 -29 -20 -51t-50 -21q-30 0 -52 22t-21 50v118q0 29 21 51q22 22 52 22t50 -22t20 -51v-118zM143 143h809v1287h-809v-1287zM1024 0h-952q-28 0 -50 22
t-22 50v1429q0 29 22 49t50 21h952q28 -1 50 -21t22 -49v-1429q0 -27 -21 -52q-24 -20 -51 -20z" />
    <glyph glyph-name="multiply" unicode="&#xd7;" horiz-adv-x="991" 
d="M786 218q0 -30 -20 -50t-51 -20t-51 20l-271 270l-270 -270q-20 -20 -51 -20q-32 0 -52 20t-20 50t20 50l273 273l-273 270q-20 20 -20 50q0 29 20 51t52 22t51 -23l270 -270l271 270q20 23 51 23t51 -22t20 -51q0 -30 -20 -50l-272 -270l272 -273q20 -20 20 -50z" />
    <glyph glyph-name="Ugrave" unicode="&#xd9;" 
d="M498 1688l-183 192q-20 20 -19 51t21 51q23 20 52 20t49 -22l182 -194q23 -20 22 -50t-25 -52q-23 -22 -51 -18q-28 2 -48 22zM72 0q-27 0 -52 20q-20 25 -20 52v1429q0 29 22 49t50 20t50 -20t21 -49v-1358h809v1358q0 29 22 49t50 20t50 -20t22 -49v-1429
q0 -28 -22 -50t-50 -22h-952z" />
    <glyph glyph-name="Uacute" unicode="&#xda;" 
d="M598 1688q-20 -20 -48 -22t-52 18q-24 22 -24 52q-1 30 22 50l182 194q20 20 49 22t50 -20q21 -20 23 -51t-20 -51zM1024 0h-952q-28 0 -50 22t-22 50v1429q0 29 22 49t50 20t50 -20t21 -49v-1358h809v1358q0 29 22 49t50 20t50 -20t22 -49v-1429q0 -27 -21 -52
q-24 -20 -51 -20z" />
    <glyph glyph-name="Udieresis" unicode="&#xdc;" 
d="M381 1665q-29 0 -51 22t-21 50v118q0 29 22 51q23 22 51 22t50 -22t21 -51v-118q1 -29 -21 -51t-51 -21zM776 1737q0 -29 -20 -51t-50 -21q-30 0 -52 22t-21 50v118q0 29 21 51q22 22 52 22t50 -22t20 -51v-118zM1024 0h-952q-28 0 -50 22t-22 50v1429q0 29 22 49t50 20
t50 -20t21 -49v-1358h809v1358q0 29 22 49t50 20t50 -20t22 -49v-1429q0 -27 -21 -52q-24 -20 -51 -20z" />
    <glyph glyph-name="agrave" unicode="&#xe0;" horiz-adv-x="1062" 
d="M397 1196q-14 6 -26 18l-183 193q-20 20 -19 51t21 51q23 19 52 19t49 -21l182 -194q23 -20 22 -50q-1 -31 -29 -57t-69 -10zM72 1096h714q29 0 51 -22t21 -50v-952q0 -28 -22 -50t-50 -22h-714q-27 0 -52 20q-20 25 -20 52v356q0 47 39 64l477 239q15 7 29 7
q46 0 67 -40q7 -14 7 -28q0 -46 -39 -68l-437 -217v-242h572v809h-643q-28 0 -50 22t-22 50t22 50t50 22z" />
    <glyph glyph-name="aacute" unicode="&#xe1;" horiz-adv-x="1062" 
d="M453 1196q-41 -16 -69 10t-29 56t22 51l182 194q20 19 49 21t50 -18q20 -20 22 -52q2 -31 -18 -51l-183 -193q-12 -12 -26 -18zM786 1096q29 0 51 -22t21 -50v-952q0 -28 -22 -50t-50 -22h-714q-27 0 -52 20q-20 25 -20 52v356q0 47 39 64l477 239q26 12 54 3t41 -36
q13 -26 4 -54t-35 -42l-437 -217v-242h572v809h-643q-28 0 -50 22t-22 50t22 50t50 22h714z" />
    <glyph glyph-name="atilde" unicode="&#xe3;" horiz-adv-x="1062" 
d="M190 1190q-28 0 -50 22t-21 50q-1 28 21 50t50 21h478q29 1 49 -21t20 -50t-20 -51q-20 -22 -49 -21h-478zM786 1096q29 0 51 -22t21 -50v-952q0 -28 -22 -50t-50 -22h-714q-27 0 -52 20q-20 25 -20 52v356q0 47 39 64l477 239q26 12 54 3t41 -36q13 -26 4 -54t-35 -42
l-437 -217v-242h572v809h-643q-28 0 -50 22t-22 50t22 50t50 22h714z" />
    <glyph glyph-name="adieresis" unicode="&#xe4;" horiz-adv-x="1062" 
d="M268 1190q-28 0 -50 22t-21 50v118q0 29 21 51q22 21 50 21t50 -22t22 -50v-118q0 -28 -22 -50t-50 -22zM664 1262q0 -28 -20 -50t-51 -22q-29 0 -51 22t-22 50v118q0 29 22 51q22 21 52 21t49 -22q20 -22 21 -50v-118zM786 1096q29 0 51 -22t21 -50v-952q0 -28 -22 -50
t-50 -22h-714q-27 0 -52 20q-20 25 -20 52v356q0 47 39 64l477 239q26 12 54 3t41 -36q13 -26 4 -54t-35 -42l-437 -217v-242h572v809h-643q-28 0 -50 22t-22 50t22 50t50 22h714z" />
    <glyph glyph-name="egrave" unicode="&#xe8;" horiz-adv-x="1062" 
d="M397 1196q-14 6 -26 18l-183 193q-20 20 -19 51t21 51q23 19 52 19t49 -21l182 -194q23 -20 22 -50q-1 -31 -29 -57t-69 -10zM715 952h-572v-809h643q29 1 51 -21q21 -22 21 -50t-22 -50t-50 -22h-714q-28 0 -50 22t-22 50v952q0 28 22 50t50 22h714q29 0 51 -22t21 -50
v-356q0 -45 -41 -66l-475 -237q-30 -13 -56 -5t-40 36t-4 56t37 40l436 219v241z" />
    <glyph glyph-name="eacute" unicode="&#xe9;" horiz-adv-x="1062" 
d="M453 1196q-41 -16 -69 10t-29 56t22 51l182 194q20 19 49 21t50 -18q20 -20 22 -52q2 -31 -18 -51l-183 -193q-12 -12 -26 -18zM715 952h-572v-809h643q29 1 51 -21q21 -22 21 -50t-22 -50t-50 -22h-714q-28 0 -50 22t-22 50v952q0 28 22 50t50 22h714q29 0 51 -22
t21 -50v-356q0 -45 -41 -66l-475 -237q-30 -13 -56 -5t-40 36t-4 56t37 40l436 219v241z" />
    <glyph glyph-name="edieresis" unicode="&#xeb;" horiz-adv-x="1062" 
d="M268 1190q-28 0 -50 22t-21 50v118q0 29 21 51q22 21 50 21t50 -22t22 -50v-118q0 -28 -22 -50t-50 -22zM664 1262q0 -28 -20 -50t-51 -22q-29 0 -51 22t-22 50v118q0 29 22 51q22 21 52 21t49 -22q20 -22 21 -50v-118zM715 952h-572v-809h643q29 1 51 -21q21 -22 21 -50
t-22 -50t-50 -22h-714q-28 0 -50 22t-22 50v952q0 28 22 50t50 22h714q29 0 51 -22t21 -50v-356q0 -45 -41 -66l-475 -237q-30 -13 -56 -5t-40 36t-4 56t37 40l436 219v241z" />
    <glyph glyph-name="igrave" unicode="&#xec;" horiz-adv-x="532" 
d="M229 1196q-14 6 -26 18l-183 193q-20 20 -19 51t22 51q23 19 51 19t49 -21l182 -194q23 -20 22 -50q-1 -31 -29 -57t-69 -10zM254 1096q28 0 50 -22t22 -50v-952q0 -28 -22 -50t-50 -22t-50 22t-22 50v952q0 28 22 50t50 22z" />
    <glyph glyph-name="iacute" unicode="&#xed;" horiz-adv-x="348" 
d="M125 1214q-53 -49 -100 -2q-23 20 -24 50t22 51l182 194q20 19 49 21t50 -18q20 -20 22 -52q2 -31 -19 -51zM72 1096q28 0 50 -22t21 -50v-952q1 -28 -21 -50t-50 -22t-50 22t-22 50v952q0 28 22 50t50 22z" />
    <glyph glyph-name="idieresis" unicode="&#xef;" horiz-adv-x="671" 
d="M72 1190q-28 0 -50 22t-22 50v118q0 29 22 51q22 21 50 21t50 -22t21 -50v-118q0 -28 -21 -50t-50 -22zM467 1262q-1 -28 -21 -50t-50 -22t-52 22t-20 50v118q0 29 21 51q21 21 51 21t50 -22t21 -50v-118zM233 1096q29 0 51 -22t21 -50v-952q1 -28 -21 -50t-51 -22
t-51 22t-20 50v952q0 28 21 50t50 22z" />
    <glyph glyph-name="ntilde" unicode="&#xf1;" horiz-adv-x="1062" 
d="M190 1190q-28 0 -50 22t-21 50q-1 28 21 50t50 21h478q29 1 49 -21t20 -50t-20 -51q-20 -22 -49 -21h-478zM786 1096q29 0 51 -22t21 -50v-952q0 -28 -22 -50t-51 -22q-30 0 -50 22t-20 50v880h-572v-880q1 -28 -21 -50t-50 -22t-50 22t-22 50v952q0 28 22 50t50 22h714z
" />
    <glyph glyph-name="ograve" unicode="&#xf2;" horiz-adv-x="1062" 
d="M397 1196q-14 6 -26 18l-183 193q-20 20 -19 51t21 51q23 19 52 19t49 -21l182 -194q23 -20 22 -50q-1 -31 -29 -57t-69 -10zM715 143v809h-572v-809h572zM858 72q0 -28 -22 -50t-50 -22h-714q-28 0 -50 22t-22 50v952q0 28 22 50t50 22h714q29 0 51 -22t21 -50v-952z
" />
    <glyph glyph-name="oacute" unicode="&#xf3;" horiz-adv-x="1062" 
d="M453 1196q-41 -16 -69 10t-29 56t22 51l182 194q20 19 49 21t50 -18q20 -20 22 -52q2 -31 -18 -51l-183 -193q-12 -12 -26 -18zM715 143v809h-572v-809h572zM858 72q0 -28 -22 -50t-50 -22h-714q-28 0 -50 22t-22 50v952q0 28 22 50t50 22h714q29 0 51 -22t21 -50v-952z
" />
    <glyph glyph-name="otilde" unicode="&#xf5;" horiz-adv-x="1062" 
d="M190 1190q-28 0 -50 22t-21 50q-1 28 21 50t50 21h478q29 1 49 -21t20 -50t-20 -51q-20 -22 -49 -21h-478zM715 143v809h-572v-809h572zM858 72q0 -28 -22 -50t-50 -22h-714q-28 0 -50 22t-22 50v952q0 28 22 50t50 22h714q29 0 51 -22t21 -50v-952z" />
    <glyph glyph-name="odieresis" unicode="&#xf6;" horiz-adv-x="1062" 
d="M268 1190q-28 0 -50 22t-21 50v118q0 29 21 51q22 21 50 21t50 -22t22 -50v-118q0 -28 -22 -50t-50 -22zM664 1262q0 -28 -20 -50t-51 -22q-29 0 -51 22t-22 50v118q0 29 22 51q22 21 52 21t49 -22q20 -22 21 -50v-118zM715 143v809h-572v-809h572zM858 72q0 -28 -22 -50
t-50 -22h-714q-28 0 -50 22t-22 50v952q0 28 22 50t50 22h714q29 0 51 -22t21 -50v-952z" />
    <glyph glyph-name="divide" unicode="&#xf7;" horiz-adv-x="1257" 
d="M526 283q29 0 51 -22t21 -50v-119q0 -31 -22 -51q-22 -21 -50 -21t-50 20t-21 52v119q0 29 21 51t50 21zM526 811q-28 0 -50 20t-21 52v118q0 29 21 51q22 22 50 22t51 -22q22 -22 21 -51v-118q0 -31 -21 -52q-22 -20 -51 -20zM981 618q29 0 51 -22t21 -50q0 -30 -22 -50
t-50 -21h-909q-28 1 -50 21t-22 50t22 52t50 20h909z" />
    <glyph glyph-name="ugrave" unicode="&#xf9;" horiz-adv-x="1062" 
d="M397 1196q-14 6 -26 18l-183 193q-20 20 -19 51t21 51q23 19 52 19t49 -21l182 -194q23 -20 22 -50q-1 -31 -29 -57t-69 -10zM715 1024q0 28 20 50t50 22t52 -22t21 -50v-952q0 -28 -22 -50t-50 -22h-714q-28 0 -50 22t-22 50v952q0 28 22 50t50 22t50 -22t21 -50v-881
h572v881z" />
    <glyph glyph-name="uacute" unicode="&#xfa;" horiz-adv-x="1062" 
d="M453 1196q-41 -16 -69 10t-29 56t22 51l182 194q20 19 49 21t50 -18q20 -20 22 -52q2 -31 -18 -51l-183 -193q-12 -12 -26 -18zM715 1024q0 28 20 50t50 22t52 -22t21 -50v-952q0 -28 -22 -50t-50 -22h-714q-28 0 -50 22t-22 50v952q0 28 22 50t50 22t50 -22t21 -50v-881
h572v881z" />
    <glyph glyph-name="udieresis" unicode="&#xfc;" horiz-adv-x="1062" 
d="M268 1190q-28 0 -50 22t-21 50v118q0 29 21 51q22 21 50 21t50 -22t22 -50v-118q0 -28 -22 -50t-50 -22zM664 1262q0 -28 -20 -50t-51 -22q-29 0 -51 22t-22 50v118q0 29 22 51q22 21 52 21t49 -22q20 -22 21 -50v-118zM785 1096q30 0 52 -22t21 -50v-952q0 -28 -22 -50
t-50 -22h-714q-28 0 -50 22t-22 50v952q0 28 22 50t50 22t50 -22t21 -50v-881h572v881q0 28 20 50t50 22z" />
    <glyph glyph-name="uni02C9" unicode="&#x2c9;" horiz-adv-x="825" 
d="M72 494q-28 0 -50 22t-22 50t22 50t50 21h477q29 0 51 -22q22 -23 21 -51q0 -28 -22 -50t-50 -20h-477z" />
    <glyph glyph-name="tilde" unicode="&#x2dc;" horiz-adv-x="823" 
d="M72 1190q-28 0 -50 22t-22 50t22 50t50 21h477q29 1 49 -21t20 -50t-20 -51q-20 -22 -49 -21h-477z" />
    <glyph glyph-name="endash" unicode="&#x2013;" horiz-adv-x="825" 
d="M72 494q-28 0 -50 22t-22 50t22 50t50 21h477q29 0 51 -22q22 -23 21 -51q0 -28 -22 -50t-50 -20h-477z" />
    <glyph glyph-name="emdash" unicode="&#x2014;" horiz-adv-x="980" 
d="M72 494q-28 0 -50 22t-22 50t22 50t50 21h633q29 0 51 -22q22 -23 20 -51q0 -28 -22 -50t-49 -20h-633z" />
    <glyph glyph-name="quoteleft" unicode="&#x2018;" horiz-adv-x="348" 
d="M72 1571q28 -1 50 -21t21 -49v-323q1 -29 -21 -51q-22 -21 -50 -21t-50 22t-22 50v323q0 29 22 49t50 21z" />
    <glyph glyph-name="quoteright" unicode="&#x2019;" horiz-adv-x="348" 
d="M72 1571q28 -1 50 -21t21 -49v-323q1 -29 -21 -51q-22 -21 -50 -21t-50 22t-22 50v323q0 29 22 49t50 21z" />
    <glyph glyph-name="quotesinglbase" unicode="&#x201a;" horiz-adv-x="479" 
d="M47 -231q-27 11 -40 37t-3 55l131 358q10 29 38 40q29 11 55 2t39 -36t3 -55l-131 -358q-9 -29 -37 -41t-55 -2z" />
    <glyph glyph-name="quotedblleft" unicode="&#x201c;" horiz-adv-x="593" 
d="M246 1501q0 29 21 49t51 21q30 -1 50 -21t21 -49v-323q0 -29 -20 -51q-21 -21 -51 -21t-52 22t-20 50v323zM72 1571q28 -1 50 -21t21 -49v-323q1 -29 -21 -51q-22 -21 -50 -21t-50 22t-22 50v323q0 29 22 49t50 21z" />
    <glyph glyph-name="quotedblright" unicode="&#x201d;" horiz-adv-x="593" 
d="M246 1501q0 29 21 49t51 21q30 -1 50 -21t21 -49v-323q0 -29 -20 -51q-21 -21 -51 -21t-52 22t-20 50v323zM72 1571q28 -1 50 -21t21 -49v-323q1 -29 -21 -51q-22 -21 -50 -21t-50 22t-22 50v323q0 29 22 49t50 21z" />
    <glyph glyph-name="quotedblbase" unicode="&#x201e;" horiz-adv-x="765" 
d="M334 -231q-27 11 -40 37t-3 55l131 358q10 29 38 40t54 2t40 -36q13 -27 3 -55l-131 -358q-10 -29 -38 -41t-54 -2zM47 -231q-27 11 -40 37t-3 55l131 358q10 29 38 40q29 11 55 2t39 -36t3 -55l-131 -358q-9 -29 -37 -41t-55 -2z" />
    <glyph glyph-name="bullet" unicode="&#x2022;" horiz-adv-x="729" 
d="M261 1049q107 -1 185 -79t78 -186t-77 -184t-185 -76t-186 77q-76 77 -76 185t77 186q77 77 184 77z" />
    <glyph glyph-name="perthousand" unicode="&#x2030;" horiz-adv-x="1937" 
d="M1466 143q51 0 87 36t36 87t-36 87t-87 36t-87 -36t-36 -87t36 -87t87 -36zM1466 532q111 0 189 -78t78 -189q0 -109 -78 -187t-189 -78q-110 0 -188 78t-78 188t78 188t188 78zM831 143q51 0 88 36q36 36 35 87q0 51 -35 87t-87 36t-88 -36t-36 -87t36 -87t87 -36z
M831 532q111 0 189 -78t78 -189q0 -109 -78 -187t-189 -78t-189 78t-77 188q-1 110 77 188t189 78zM268 1430q-51 0 -87 -36t-36 -87t36 -87t87 -36t87 36t36 87t-36 87t-87 36zM267 1040q-109 0 -187 78t-78 188t78 188t188 77q110 0 188 -78q79 -77 79 -187t-79 -188
t-189 -78zM80 0q-30 0 -50 13q-22 13 -27 43t11 55l953 1429q17 25 45 31t53 -10q25 -17 31 -47t-11 -54l-952 -1429q-23 -31 -53 -31z" />
    <glyph glyph-name="guilsinglleft" unicode="&#x2039;" horiz-adv-x="1062" 
d="M786 0q-31 0 -51 20l-715 715q-20 23 -20 51t20 50l715 714q23 23 51 23q28 1 50 -21q20 -22 20 -52t-20 -50l-664 -664l664 -663q20 -20 20 -51q0 -32 -20 -52t-50 -20z" />
    <glyph glyph-name="guilsinglright" unicode="&#x203a;" horiz-adv-x="1062" 
d="M72 0q-31 0 -49 20q-23 20 -23 52t23 51l663 663l-663 664q-23 20 -23 50t23 50q20 23 50 23t50 -23l715 -714q20 -20 20 -50t-20 -51l-715 -715q-20 -20 -51 -20z" />
    <glyph glyph-name="fraction" unicode="&#x2044;" horiz-adv-x="1302" 
d="M1018 1571q67 0 78 -57q6 -30 -11 -54l-952 -1427q-16 -25 -45 -31t-55 10q-25 16 -30 45t11 54l953 1429q20 31 51 31z" />
    <glyph glyph-name="fi" unicode="&#xfb01;" horiz-adv-x="942" 
d="M668 1632q29 0 49 -20t20 -49v-301q0 -29 -20 -51q-20 -21 -50 -21t-51 21q-20 22 -20 51v229h-453v-395h263q28 0 50 -22t22 -50t-22 -50t-50 -22h-263v-880q1 -28 -21 -50t-50 -22t-50 22t-22 50v1491q0 29 22 49t50 20h596zM596 1024q0 28 20 50t51 22q30 0 50 -22
t20 -50v-952q0 -28 -20 -50t-50 -22t-51 22q-20 22 -20 50v952z" />
    <glyph glyph-name="fl" unicode="&#xfb02;" horiz-adv-x="942" 
d="M737 72q0 -28 -20 -50t-50 -22t-51 22q-20 22 -20 50v1419h-453v-395h263q28 0 50 -22t22 -50t-22 -50t-50 -22h-263v-880q1 -28 -21 -50t-50 -22t-50 22t-22 50v1491q0 29 22 49t50 20h600q27 -2 45 -20t20 -45v-1495z" />
    <glyph glyph-name="CR" horiz-adv-x="512" 
 />
    <glyph glyph-name="endash.001" horiz-adv-x="825" 
d="M72 494q-28 0 -50 22t-22 50t22 50t50 21h477q29 0 51 -22q22 -23 21 -51q0 -28 -22 -50t-50 -20h-477z" />
    <glyph glyph-name="emdash.001" horiz-adv-x="980" 
d="M72 494q-28 0 -50 22t-22 50t22 50t50 21h620q28 0 50 -22q22 -23 22 -51t-22 -50t-50 -20h-620z" />
    <glyph glyph-name="percent" horiz-adv-x="1302" 
d="M831 143q51 0 88 36q36 36 35 87q0 51 -35 87t-87 36t-88 -36t-36 -87t36 -87t87 -36zM831 532q111 0 189 -78t78 -189q0 -109 -78 -187t-189 -78t-189 78t-77 188q-1 110 77 188t189 78zM268 1430q-51 0 -87 -36t-36 -87t36 -87t87 -36t87 36t36 87t-36 87t-87 36z
M267 1040q-109 0 -187 78t-78 188t78 188t188 77q110 0 188 -78q79 -77 79 -187t-79 -188t-189 -78zM80 0q-30 0 -50 13q-22 13 -27 43t11 55l953 1429q17 25 45 31t53 -10q25 -17 31 -47t-11 -54l-952 -1429q-23 -31 -53 -31z" />
    <glyph glyph-name="uni02C9.001" horiz-adv-x="825" 
d="M72 494q-28 0 -50 22t-22 50t22 50t50 21h477q29 0 51 -22q22 -23 21 -51q0 -28 -22 -50t-50 -20h-477z" />
  </font>
</defs>
</svg>
