<?xml version="1.0" encoding="utf-8"?>
<!-- Generator: Adobe Illustrator 16.0.0, SVG Export Plug-In . SVG Version: 6.00 Build 0)  -->
<!DOCTYPE svg PUBLIC "-//W3C//DTD SVG 1.0//EN" "http://www.w3.org/TR/2001/REC-SVG-20010904/DTD/svg10.dtd">
<svg version="1.0" id="Ebene_1" xmlns="http://www.w3.org/2000/svg" xmlns:xlink="http://www.w3.org/1999/xlink" x="0px" y="0px"
	 width="10px" height="11.553px" viewBox="30.002 31.007 10 11.553" enable-background="new 30.002 31.007 10 11.553"
	 xml:space="preserve">
<g>
	<path fill="#414042" d="M39.832,31.332c-0.044-0.293-0.254-0.337-0.405-0.322c-0.2,0.024-3.867,0.483-3.986,0.498
		c-1.282,0.166-2.208,0.332-2.208,0.332l-0.027,0.005c-0.1-0.015-0.2-0.024-0.303-0.024c-1.56-0.044-2.859,1.187-2.9,2.749
		c-0.037,1.294,0.801,2.402,1.978,2.773c0,0,0.547,4.365,0.588,4.692s0.293,0.557,0.562,0.522c0.251-0.034,1.06-0.137,1.431-0.181
		c0.259-0.034,0.442-0.303,0.4-0.625c-0.029-0.234-0.591-4.741-0.591-4.741c0.757-0.488,1.26-1.318,1.287-2.29
		c0.01-0.41-0.059-0.786-0.207-1.143l-0.008-0.01c0,0,4.126-0.527,4.272-0.547c0.161-0.02,0.312-0.112,0.283-0.361
		C39.969,32.43,39.876,31.615,39.832,31.332z M32.945,35.985c-0.776,0.098-1.484-0.454-1.582-1.23s0.454-1.484,1.23-1.582
		c0.776-0.093,1.484,0.454,1.582,1.235C34.273,35.184,33.721,35.892,32.945,35.985z M39.617,32.44
		c0.02,0.171-0.068,0.249-0.215,0.269c-0.063,0.01-3.008,0.391-3.008,0.391l-0.178-1.353c0.915-0.117,2.961-0.361,3-0.366
		c0.137-0.02,0.278,0.059,0.298,0.22C39.544,31.844,39.593,32.24,39.617,32.44z"/>
</g>
</svg>
