<?xml version="1.0" encoding="utf-8"?>
<!-- Generator: Adobe Illustrator 16.0.0, SVG Export Plug-In . SVG Version: 6.00 Build 0)  -->
<!DOCTYPE svg PUBLIC "-//W3C//DTD SVG 1.0//EN" "http://www.w3.org/TR/2001/REC-SVG-20010904/DTD/svg10.dtd">
<svg version="1.0" id="Capa_1" xmlns="http://www.w3.org/2000/svg" xmlns:xlink="http://www.w3.org/1999/xlink" x="0px" y="0px"
	 width="50px" height="50px" viewBox="9.826 9.826 50 50" style="enable-background:new 9.826 9.826 50 50;" xml:space="preserve">
<g>
	<g>
		<path style="fill:#FFFFFF;" d="M34.826,9.826c-13.785,0-25,11.215-25,25s11.215,25,25,25s25-11.215,25-25
			S48.611,9.826,34.826,9.826z M41.043,35.705h-4.067c0,6.498,0,14.498,0,14.498h-6.026c0,0,0-7.922,0-14.498h-2.865v-5.123h2.865
			v-3.314c0-2.373,1.128-6.08,6.08-6.08l4.468,0.016v4.975c0,0-2.715,0-3.242,0c-0.524,0-1.276,0.261-1.276,1.393v3.012h4.592
			L41.043,35.705z"/>
	</g>
</g>
</svg>
