<?xml version="1.0" encoding="utf-8"?>
<!-- Generator: Adobe Illustrator 16.0.0, SVG Export Plug-In . SVG Version: 6.00 Build 0)  -->
<!DOCTYPE svg PUBLIC "-//W3C//DTD SVG 1.0//EN" "http://www.w3.org/TR/2001/REC-SVG-20010904/DTD/svg10.dtd">
<svg version="1.0" id="Ebene_1" xmlns="http://www.w3.org/2000/svg" xmlns:xlink="http://www.w3.org/1999/xlink" x="0px" y="0px"
	 width="45px" height="45px" viewBox="33.5 33.5 45 45" enable-background="new 33.5 33.5 45 45" xml:space="preserve">
<g>
	<g>
		<path fill="#FFFFFF" d="M53.176,64.311c-0.509,0.364-0.926,0.15-0.926-0.477V48.232c0-0.626,0.418-0.841,0.928-0.478l10.666,7.585
			c0.512,0.363,0.512,0.959,0.003,1.323L53.176,64.311z"/>
	</g>
	<path fill="#FFFFFF" d="M56,37.518c10.19,0,18.482,8.291,18.482,18.482c0,10.191-8.292,18.482-18.482,18.482
		c-10.191,0-18.482-8.291-18.482-18.482C37.518,45.809,45.809,37.518,56,37.518 M56,33.5c-12.427,0-22.5,10.074-22.5,22.5
		c0,12.427,10.073,22.5,22.5,22.5S78.5,68.427,78.5,56C78.5,43.574,68.427,33.5,56,33.5L56,33.5z"/>
</g>
</svg>
