<?xml version="1.0" encoding="utf-8"?>
<!-- Generator: Adobe Illustrator 16.0.0, SVG Export Plug-In . SVG Version: 6.00 Build 0)  -->
<!DOCTYPE svg PUBLIC "-//W3C//DTD SVG 1.0//EN" "http://www.w3.org/TR/2001/REC-SVG-20010904/DTD/svg10.dtd">
<svg version="1.0" id="Ebene_1" xmlns="http://www.w3.org/2000/svg" xmlns:xlink="http://www.w3.org/1999/xlink" x="0px" y="0px"
	 width="112px" height="112px" viewBox="0 0 112 112" enable-background="new 0 0 112 112" xml:space="preserve">
<g>
	<g>
		<path fill="#FFFFFF" d="M48.971,76.683c-1.267,0.908-2.304,0.376-2.304-1.184V36.668c0-1.559,1.04-2.095,2.31-1.191l26.547,18.88
			c1.271,0.904,1.272,2.386,0.006,3.294L48.971,76.683z"/>
	</g>
	<path fill="#FFFFFF" d="M56,10c25.364,0,46,20.636,46,46s-20.636,46-46,46S10,81.364,10,56S30.636,10,56,10 M56,0
		C25.072,0,0,25.072,0,56s25.072,56,56,56s56-25.072,56-56S86.928,0,56,0L56,0z"/>
</g>
</svg>
