<?xml version="1.0" encoding="utf-8"?>
<!-- Generator: Adobe Illustrator 16.0.0, SVG Export Plug-In . SVG Version: 6.00 Build 0)  -->
<!DOCTYPE svg PUBLIC "-//W3C//DTD SVG 1.0//EN" "http://www.w3.org/TR/2001/REC-SVG-20010904/DTD/svg10.dtd">
<svg version="1.0" id="Capa_1" xmlns="http://www.w3.org/2000/svg" xmlns:xlink="http://www.w3.org/1999/xlink" x="0px" y="0px"
	 width="50px" height="50px" viewBox="9.688 9.826 50 50" enable-background="new 9.688 9.826 50 50" xml:space="preserve">
<path fill="#FFFFFF" d="M34.688,9.826c-13.785,0-25,11.215-25,25s11.215,25,25,25s25-11.215,25-25S48.473,9.826,34.688,9.826z
	 M14.409,39.784c-0.019,0.095-0.198,0.166-0.417,0.166c-0.221,0-0.4-0.071-0.417-0.166l-0.627-3.044l0.627-3.146
	c0.017-0.095,0.196-0.166,0.417-0.166c0.218,0,0.397,0.071,0.417,0.164l0.713,3.147L14.409,39.784z M18.866,41.475
	c-0.018,0.186-0.244,0.329-0.518,0.329c-0.276,0-0.503-0.146-0.517-0.329l-0.536-4.704l0.536-7.278
	c0.014-0.186,0.241-0.33,0.517-0.33c0.274,0,0.5,0.145,0.518,0.33l0.604,7.278L18.866,41.475z M23.313,41.397
	c-0.013,0.228-0.282,0.405-0.611,0.406c-0.331,0-0.6-0.178-0.611-0.403l-0.448-4.628l0.448-9.689
	c0.012-0.229,0.28-0.406,0.611-0.406c0.329,0,0.597,0.179,0.61,0.406l0.504,9.689L23.313,41.397z M27.752,41.328
	c-0.011,0.271-0.316,0.479-0.695,0.479c-0.382,0-0.688-0.212-0.696-0.479l-0.368-4.555l0.366-9.761
	c0.01-0.271,0.315-0.481,0.697-0.481c0.38,0,0.687,0.211,0.696,0.481l0.413,9.761L27.752,41.328z M32.186,41.271
	c-0.006,0.308-0.354,0.554-0.776,0.554s-0.77-0.249-0.776-0.553c0,0-0.294-4.492-0.294-4.499l0.294-11.189
	c0.007-0.306,0.354-0.557,0.776-0.557s0.771,0.25,0.776,0.557l0.327,11.191L32.186,41.271z M50.824,41.836
	c-0.101,0-15.518-0.008-15.532-0.008c-0.335-0.032-0.6-0.31-0.604-0.641V23.99c0.003-0.316,0.116-0.479,0.539-0.638
	c1.088-0.406,2.32-0.647,3.584-0.647c5.165,0,9.4,3.831,9.846,8.713c0.668-0.27,1.399-0.421,2.167-0.421
	c3.096,0,5.604,2.426,5.604,5.42C56.427,39.41,53.919,41.836,50.824,41.836z"/>
</svg>
