<?xml version="1.0" encoding="utf-8"?>
<!-- Generator: Adobe Illustrator 16.0.0, SVG Export Plug-In . SVG Version: 6.00 Build 0)  -->
<!DOCTYPE svg PUBLIC "-//W3C//DTD SVG 1.0//EN" "http://www.w3.org/TR/2001/REC-SVG-20010904/DTD/svg10.dtd">
<svg version="1.0" id="Capa_1" xmlns="http://www.w3.org/2000/svg" xmlns:xlink="http://www.w3.org/1999/xlink" x="0px" y="0px"
	 width="57.777px" height="53.333px" viewBox="9.826 9.826 57.777 53.333"
	 style="enable-background:new 9.826 9.826 57.777 53.333;" xml:space="preserve">
<g>
	<g>
		<path style="fill:#FFFFFF;" d="M38.715,9.826c-15.93,0-28.889,11.962-28.889,26.667c0,14.704,12.959,26.666,28.889,26.666
			s28.889-11.962,28.889-26.666C67.604,21.788,54.645,9.826,38.715,9.826z M51.603,30.389c0.011,0.265,0.018,0.531,0.018,0.798
			c0,8.112-6.688,17.463-18.916,17.463c-3.755,0-7.253-1.015-10.192-2.756c0.521,0.054,1.05,0.085,1.585,0.085
			c3.115,0,5.981-0.98,8.26-2.626c-2.91-0.054-5.37-1.824-6.214-4.266c0.403,0.071,0.821,0.109,1.25,0.109
			c0.606,0,1.193-0.072,1.753-0.214c-3.043-0.562-5.336-3.042-5.336-6.021c0-0.025,0-0.049,0-0.077
			c0.896,0.462,1.921,0.737,3.007,0.769c-1.782-1.098-2.952-2.979-2.952-5.108c0-1.125,0.327-2.183,0.898-3.087
			c3.278,3.712,8.181,6.156,13.705,6.415c-0.114-0.449-0.17-0.922-0.17-1.401c0-3.389,2.975-6.139,6.646-6.139
			c1.914,0,3.645,0.748,4.856,1.941c1.515-0.276,2.936-0.787,4.222-1.495c-0.498,1.438-1.553,2.641-2.933,3.401
			c1.348-0.15,2.634-0.479,3.818-0.965C54.028,28.444,52.9,29.524,51.603,30.389z"/>
	</g>
</g>
</svg>
